<svg width="211" height="80" viewBox="0 0 211 80" fill="none" xmlns="http://www.w3.org/2000/svg">
<g clip-path="url(#clip0_1983_13283)">
<mask id="mask0_1983_13283" style="mask-type:luminance" maskUnits="userSpaceOnUse" x="0" y="0" width="211" height="80">
<path d="M211 0H0V80H211V0Z" fill="white"/>
</mask>
<g mask="url(#mask0_1983_13283)">
<path d="M82.574 16.2788C83.233 16.2788 83.7085 15.7839 83.7085 15.0978C83.7085 14.5697 83.2539 14 82.574 14C82.2487 14 81.9484 14.1206 81.7315 14.3451C81.5229 14.5614 81.4103 14.8483 81.4228 15.156C81.4437 15.8297 81.9067 16.2788 82.574 16.2788Z" fill="#0080BB"/>
<path d="M80.802 28.3016L80.3432 28.3557L80.2723 28.3848L80.2389 28.418C80.0846 28.5719 80.1054 28.8089 80.118 28.8796C80.143 29.0376 80.2222 29.1582 80.3557 29.2248L80.4099 29.2372H80.4433C81.2817 29.204 81.8698 29.1832 82.5789 29.1832C83.2879 29.1832 83.8427 29.1998 84.6811 29.2331H84.7061L84.7645 29.2248L84.7978 29.2081C84.9855 29.1125 85.0147 28.8713 85.0189 28.7964C85.0314 28.6135 84.9689 28.4638 84.8562 28.3848L84.8312 28.3681L84.3307 28.2974C83.5424 28.2018 83.4965 28.1976 83.4965 26.3721V20.33C83.4965 18.5294 83.5298 18.4545 84.3223 18.388L84.7728 18.3506L84.827 18.3339L84.8562 18.3132C84.973 18.2383 85.0314 18.0886 85.0189 17.9015C85.0064 17.706 84.923 17.5522 84.7728 17.4773L84.7186 17.4648H84.6852C83.8927 17.4981 83.2963 17.5189 82.583 17.5189C81.8698 17.5189 81.265 17.5023 80.4224 17.469L80.3682 17.4773L80.3348 17.494C80.1471 17.5896 80.118 17.8308 80.1138 17.9015C80.1013 18.0886 80.1597 18.2383 80.2931 18.3256L80.3265 18.3506L80.8145 18.388C81.6112 18.4545 81.6404 18.5294 81.6404 20.33V26.3721C81.6404 28.1976 81.5945 28.206 80.8062 28.2974L80.802 28.3016Z" fill="#0080BB"/>
<path d="M92.4405 22.6424L91.0766 21.79C90.5761 21.4822 89.7377 20.8252 89.7377 19.902C89.7377 19.2866 89.9713 18.2512 91.5312 18.2512C92.9577 18.2512 93.3873 19.1327 93.6334 20.0268L93.6585 20.0767L93.6668 20.085C93.7419 20.1765 93.8587 20.2264 94.0005 20.2264C94.159 20.2264 94.3634 20.164 94.4801 19.9935L94.501 19.9312V19.8896C94.501 19.1244 94.3342 18.143 94.1798 17.7397L94.1256 17.59H93.9629C93.8503 17.59 93.6293 17.5609 93.429 17.4943C93.0161 17.3862 92.3696 17.2656 91.7857 17.2656C89.5708 17.2656 88.0818 18.5339 88.0818 20.4177C88.0818 21.9355 89.1371 22.946 90.0255 23.5282L91.6438 24.5802C92.7784 25.3079 92.9327 26.0565 92.9327 26.7592C92.9327 27.6159 92.3447 28.4808 91.035 28.4808C89.3749 28.4808 88.649 27.1959 88.3237 26.098L88.3029 26.0565C88.2319 25.9525 88.111 25.8943 87.9567 25.8943C87.819 25.8943 87.623 25.9483 87.4937 26.1271L87.4688 26.1978V26.2477C87.5063 27.042 87.7273 28.2978 87.9692 28.7469L88.0109 28.7927L88.0442 28.8135C88.3863 29.0131 89.3414 29.4705 90.818 29.4705C93.1246 29.4705 94.6762 28.119 94.6762 26.1022C94.6762 24.705 93.9463 23.5739 92.4405 22.6466V22.6424Z" fill="#0080BB"/>
<path d="M108.181 17.2804L108.16 17.2346C108.073 17.0558 107.848 17.0392 107.756 17.0392C107.706 17.0392 107.631 17.0433 107.526 17.0849L107.468 17.1307L107.443 17.1681C107.259 17.4883 107.234 17.5299 106.317 17.5299H99.2886C98.5128 17.5299 98.2625 17.4841 98.1999 17.1639L98.1707 17.1016L98.1415 17.0725C98.0748 17.0059 97.9747 16.9727 97.8329 16.9727C97.7703 16.9727 97.6202 16.981 97.4867 17.0683L97.4325 17.139L97.4241 17.1972C97.3073 17.8626 97.0571 18.9271 96.7734 19.7255V19.817L96.7985 19.8711C96.8819 20.0415 97.0946 20.158 97.3115 20.158C97.4158 20.158 97.5159 20.1289 97.6076 20.0582L97.6493 20.0083L97.666 19.975C97.8329 19.5924 97.9914 19.2307 98.3751 18.8855C98.7255 18.5653 99.593 18.5237 100.31 18.5237H101.249C101.366 18.5237 101.491 18.5237 101.512 18.5362C101.528 18.5653 101.528 18.7025 101.528 18.8398V26.4247C101.528 28.2419 101.432 28.2502 100.686 28.3167L100.039 28.375L99.981 28.3957L99.9684 28.4041C99.835 28.4872 99.7599 28.6494 99.7682 28.8365C99.7766 29.0195 99.86 29.1692 100.01 29.2441L100.064 29.2565H100.098C101.136 29.2233 101.758 29.2066 102.459 29.2066C103.122 29.2066 103.656 29.2233 104.682 29.2565H104.703L104.761 29.2482L104.794 29.2316C104.982 29.1359 105.011 28.8906 105.015 28.8199C105.028 28.6369 104.97 28.4872 104.853 28.4082L104.828 28.3916L104.202 28.3209C103.439 28.2544 103.393 28.2502 103.393 26.4288V18.8023C103.393 18.7067 103.393 18.5903 103.401 18.5321C103.46 18.5237 103.576 18.5237 103.656 18.5237H104.865C105.754 18.5237 106.354 18.6485 106.7 18.9021C106.801 18.977 106.951 19.3055 107.034 20.0083L107.059 20.0707L107.088 20.1039C107.172 20.2037 107.314 20.2578 107.476 20.2578C107.676 20.2578 107.843 20.1705 107.931 20L107.943 19.9376V19.9002C107.893 19.4178 108.01 18.0705 108.198 17.3677V17.2845L108.181 17.2804Z" fill="#0080BB"/>
<path d="M112.542 16.2788C113.21 16.2788 113.677 15.7923 113.677 15.0978C113.677 14.5697 113.222 14 112.542 14C112.213 14 111.912 14.1248 111.7 14.3451C111.491 14.5614 111.383 14.8483 111.391 15.156C111.412 15.8297 111.875 16.2788 112.542 16.2788Z" fill="#0080BB"/>
<path d="M114.278 18.3997L114.728 18.3623L114.782 18.3457L114.812 18.3249C114.979 18.2126 114.979 17.9964 114.974 17.9132C114.97 17.8383 114.941 17.5972 114.728 17.489L114.674 17.4766H114.641C113.848 17.5098 113.252 17.5306 112.538 17.5306C111.825 17.5306 111.22 17.514 110.378 17.4807L110.324 17.489L110.29 17.5057C110.165 17.568 110.082 17.7219 110.065 17.9174C110.053 18.1045 110.115 18.2542 110.244 18.3415L110.274 18.3665L110.762 18.4039C111.558 18.4704 111.587 18.5453 111.587 20.3459V26.388C111.587 28.2135 111.542 28.2218 110.753 28.3133L110.294 28.3674L110.224 28.3965L110.19 28.4298C110.036 28.5878 110.061 28.8206 110.069 28.8872C110.094 29.0452 110.174 29.1658 110.307 29.2323L110.361 29.2448H110.395C111.229 29.2115 111.817 29.1907 112.53 29.1907C113.243 29.1907 113.794 29.2074 114.632 29.2406H114.657L114.712 29.2323L114.745 29.2157C114.933 29.12 114.962 28.8747 114.966 28.804C114.979 28.621 114.92 28.4713 114.803 28.3923L114.778 28.3757L114.278 28.305C113.489 28.2094 113.444 28.2052 113.444 26.3797V20.3375C113.444 18.537 113.473 18.4621 114.269 18.3956L114.278 18.3997Z" fill="#0080BB"/>
<path d="M130.04 18.3929L130.307 18.3555L130.378 18.3264L130.411 18.2931C130.515 18.1892 130.566 18.027 130.549 17.8648C130.532 17.7109 130.453 17.582 130.311 17.4947L130.244 17.4739H130.198C129.644 17.5072 129.206 17.528 128.459 17.528C127.85 17.528 127.291 17.5113 126.44 17.4781H126.394L126.365 17.4947C126.232 17.5446 126.14 17.6652 126.111 17.8274C126.086 17.9688 126.111 18.1808 126.282 18.3264L126.315 18.3555L126.674 18.3971C127.333 18.4802 127.525 18.5717 127.562 18.6299C127.654 18.7713 127.867 19.3951 127.867 22.019C127.867 22.019 127.867 25.8156 127.867 25.8947C127.308 25.3083 126.716 24.6471 125.986 23.8321L123.708 21.2872C122.023 19.4034 121.06 18.1725 120.843 17.6278L120.776 17.4531L120.593 17.4822C120.397 17.5113 120.125 17.5321 119.846 17.5321C119.55 17.5321 118.645 17.5321 117.915 17.4781L117.852 17.4864L117.819 17.503C117.698 17.5612 117.614 17.6818 117.594 17.8357C117.564 18.0062 117.619 18.1892 117.752 18.3222L117.786 18.3555L118.153 18.3971C118.578 18.4511 118.903 18.5717 119.066 18.7297C119.35 19.0375 119.379 19.3036 119.379 19.7943V24.8551C119.379 25.6701 119.383 27.5746 119.179 28.0986C119.162 28.1319 119.079 28.2441 118.616 28.3024L118.123 28.3564L118.052 28.3855L118.019 28.4188C117.923 28.5144 117.873 28.6641 117.886 28.8222C117.898 28.9802 117.969 29.1174 118.107 29.213L118.182 29.2422H118.232C118.816 29.2089 119.266 29.1881 119.988 29.1881C120.576 29.1881 121.152 29.2047 122.002 29.2422L122.073 29.2255L122.111 29.2006C122.215 29.1257 122.282 29.0134 122.303 28.8762C122.328 28.7265 122.286 28.5685 122.169 28.4105L122.136 28.3647L121.502 28.3024C121.031 28.2649 120.847 28.1568 120.818 28.0986C120.755 27.9863 120.543 27.4041 120.543 24.7012V21.0044C120.543 20.8089 120.543 20.5844 120.555 20.3889C120.822 20.6967 121.189 21.125 121.519 21.5159C121.798 21.8444 122.061 22.1521 122.228 22.3475L126.178 26.8303C127.487 28.319 128.117 29.055 128.342 29.3752L128.413 29.4709H128.534C128.797 29.4709 129.006 29.3378 129.085 29.1091L129.093 29.0592V29.0301C129.068 28.8346 129.039 28.1651 129.039 26.0901V21.7862C129.039 20.9961 129.031 19.1456 129.264 18.6507C129.264 18.6507 129.406 18.5094 130.048 18.4096L130.04 18.3929Z" fill="#0080BB"/>
<path d="M139.742 22.8661C139.742 22.8661 141.006 20.6871 141.097 20.5249C141.752 19.3855 142.224 18.5622 142.899 18.4457L143.404 18.3542L143.458 18.3293L143.487 18.3043C143.6 18.2087 143.658 18.0548 143.646 17.8927C143.633 17.7305 143.55 17.5849 143.396 17.4934L143.329 17.4727H143.287C142.695 17.5101 142.224 17.5267 141.719 17.5267C141.214 17.5267 140.726 17.5101 140.075 17.4727L140.017 17.481L139.984 17.4976C139.859 17.56 139.775 17.6806 139.75 17.8344C139.721 18.0049 139.775 18.1796 139.917 18.3168L139.95 18.3501L140.334 18.3917C140.58 18.4249 140.747 18.4748 140.826 18.5039C140.705 18.8283 140.121 19.9136 139.854 20.4043L139.763 20.5707C139.383 21.3067 138.937 22.1093 138.374 23.0782C137.961 22.3255 137.556 21.5021 137.156 20.6871C136.989 20.3461 136.822 20.0093 136.655 19.6766C136.526 19.4105 136.213 18.6994 136.159 18.5081C136.205 18.4873 136.338 18.4457 136.668 18.3958L136.922 18.3584L136.989 18.3293L137.022 18.296C137.139 18.1754 137.189 17.9758 137.147 17.797C137.114 17.6473 137.014 17.5309 136.872 17.4851L136.822 17.4768H136.789C136.376 17.5101 135.771 17.5309 134.987 17.5309C134.203 17.5309 133.577 17.5142 132.997 17.4768L132.931 17.4893L132.897 17.5101C132.789 17.5725 132.714 17.6847 132.689 17.8303C132.659 18.0008 132.701 18.1713 132.826 18.3127L132.86 18.3501L133.419 18.4499C133.848 18.5206 134.048 18.5538 134.595 19.6184L136.601 23.5231C137.072 24.4296 137.122 24.6126 137.122 25.5191V26.3841C137.122 28.2262 137.077 28.2304 136.313 28.3094L135.75 28.3635L135.675 28.3926L135.642 28.4258C135.487 28.5839 135.512 28.8167 135.521 28.8874C135.546 29.0454 135.625 29.166 135.758 29.2326L135.813 29.2451H135.846C136.73 29.2118 137.348 29.191 138.065 29.191C138.782 29.191 139.366 29.2118 140.372 29.2409H140.397L140.455 29.2326L140.488 29.2159C140.601 29.1619 140.676 29.0371 140.705 28.8833C140.714 28.8126 140.739 28.5797 140.559 28.3967L140.526 28.3635L139.792 28.3053C139.125 28.2554 138.987 28.247 138.987 26.3799V25.4983C138.987 24.2384 139.016 24.1386 139.754 22.8661H139.742Z" fill="#0080BB"/>
<path d="M145.533 29.2297L145.587 29.2422H145.62C146.646 29.2089 147.205 29.1923 147.927 29.1923H149.458C150.947 29.1923 152.482 29.2089 154.016 29.2422H154.167L154.229 29.1132C154.459 28.6392 154.892 27.3085 155.022 26.6681V26.5974L155.001 26.56C154.909 26.3562 154.688 26.2647 154.509 26.2647C154.404 26.2647 154.304 26.2939 154.2 26.3729L154.162 26.4228L154.154 26.4352C153.708 27.3251 153.274 27.8533 153.049 27.978C152.698 28.1527 152.194 28.2067 150.972 28.2067C149.591 28.2067 149.245 28.0529 149.082 27.8907C148.865 27.662 148.824 27.1047 148.824 26.2855V23.8945C148.824 23.7988 148.824 23.699 148.824 23.6865C148.857 23.6699 148.999 23.6699 149.149 23.6699H150.137C150.726 23.6699 151.163 23.6824 151.393 23.7489C151.589 23.7988 151.685 23.9194 151.752 24.223L151.914 24.9174L151.939 24.9715L151.952 24.984C152.035 25.0838 152.181 25.142 152.348 25.142C152.54 25.142 152.698 25.0671 152.786 24.9133L152.803 24.8592V24.8218C152.803 24.6555 152.79 24.4434 152.774 24.1856C152.757 23.8778 152.732 23.5327 152.732 23.1917C152.732 22.8507 152.753 22.4765 152.774 22.1479C152.79 21.886 152.803 21.6614 152.803 21.4535L152.79 21.3953L152.774 21.362C152.698 21.2331 152.54 21.1541 152.348 21.1541C152.181 21.1541 152.035 21.2123 151.952 21.3121L151.931 21.3371L151.764 22.1105C151.693 22.4681 151.618 22.4931 151.51 22.5305C151.339 22.5846 150.826 22.622 150.137 22.622H149.149C148.999 22.622 148.857 22.622 148.832 22.6137C148.819 22.5887 148.819 22.4806 148.819 22.3808V18.9876C148.819 18.7838 148.819 18.5884 148.844 18.5551C148.869 18.5385 148.99 18.5385 149.099 18.5385H150.325C151.063 18.5385 151.585 18.5551 151.918 18.6341C152.64 18.8129 152.782 19.2579 153.015 19.9897L153.057 20.1145L153.082 20.1561L153.09 20.1644C153.166 20.2559 153.295 20.3099 153.445 20.3099C153.595 20.3099 153.787 20.26 153.904 20.0854L153.933 20.0438L153.904 19.7236C153.816 18.7464 153.737 17.9189 153.641 17.6486L153.57 17.4531L153.366 17.503C153.191 17.5488 152.044 17.5488 151.126 17.5488H147.927C147.264 17.5488 146.705 17.5363 145.904 17.4989L145.845 17.5072L145.816 17.5238C145.687 17.5862 145.604 17.7401 145.591 17.9355C145.578 18.1226 145.637 18.2682 145.754 18.3472L145.779 18.3638L146.129 18.4179C146.917 18.5135 146.963 18.5177 146.963 20.3266V26.4352C146.963 28.2525 146.867 28.2608 146.117 28.3273L145.52 28.3814L145.445 28.4105L145.412 28.4437C145.253 28.6018 145.278 28.8346 145.291 28.9053C145.316 29.0633 145.395 29.1839 145.528 29.2505L145.533 29.2297Z" fill="#0080BB"/>
<path d="M107.129 36.6983L107.05 36.6775H107.004C106.462 36.7108 106.028 36.7316 105.277 36.7316C104.643 36.7316 104.072 36.7191 103.267 36.6775L103.217 36.6859L103.188 36.6942C103.046 36.7482 102.946 36.8771 102.916 37.0476C102.879 37.2472 102.941 37.4385 103.104 37.5799L103.138 37.6049L103.5 37.6464C104.226 37.7379 104.343 37.8377 104.36 37.8668C104.431 37.9791 104.66 38.5488 104.66 41.2227C104.66 41.2227 104.66 44.9444 104.66 45.0026C104.159 44.4787 103.634 43.8882 102.987 43.1688L100.572 40.47C98.4868 38.1455 97.8779 37.214 97.7277 36.8397L97.6526 36.6484L97.4482 36.6817C97.2647 36.7108 97.0019 36.7274 96.7141 36.7274C96.4263 36.7274 95.5212 36.7274 94.7871 36.6734L94.7204 36.6859L94.687 36.7025C94.5577 36.7649 94.4701 36.8938 94.4451 37.0518C94.4159 37.2348 94.4701 37.4219 94.6203 37.5716L94.6536 37.6049L95.0249 37.6464C95.4461 37.7005 95.7631 37.8169 95.9175 37.9708C96.1928 38.2702 96.222 38.528 96.222 39.0104V44.042C96.222 44.7781 96.2261 46.7367 96.0259 47.2565C96.0176 47.2773 95.9467 47.3812 95.4879 47.4436L94.9873 47.5018L94.9123 47.5351L94.8789 47.5684C94.7746 47.6682 94.7204 47.822 94.7371 47.9884C94.7496 48.1547 94.8247 48.2961 94.979 48.4084L95.0624 48.4333H95.1125C95.7173 48.3959 96.1761 48.3792 96.8601 48.3792C97.5442 48.3792 98.224 48.4042 98.8706 48.4333L98.9498 48.4084L98.9873 48.3834C99.0958 48.3086 99.1709 48.188 99.1917 48.0466C99.2168 47.8886 99.1792 47.7222 99.0833 47.5975L99.0124 47.506L98.3659 47.4436C97.8945 47.4062 97.7319 47.2939 97.7068 47.2565C97.6443 47.1442 97.4357 46.5703 97.4357 43.8923V40.2163C97.4357 40.0583 97.4357 39.8629 97.4482 39.6757C97.6735 39.9377 97.9613 40.2746 98.2366 40.5989L98.3367 40.7153C98.6245 41.0522 98.8914 41.3682 99.0624 41.5637L102.987 46.0173C104.289 47.4935 104.91 48.2212 105.135 48.5414L105.211 48.6537H105.344C105.619 48.6537 105.836 48.5165 105.924 48.2628V48.2088V48.1796C105.903 47.9884 105.874 47.323 105.874 45.2563V40.9981C105.874 40.2122 105.865 38.3617 106.091 37.8835C106.091 37.8835 106.232 37.7504 106.85 37.6548L107.129 37.6173L107.204 37.5799L107.238 37.5466C107.346 37.4344 107.4 37.268 107.379 37.0975C107.363 36.9395 107.279 36.8023 107.125 36.7025L107.129 36.6983Z" fill="#0080BB"/>
<path d="M113.554 37.6525L114.008 37.6192L114.071 37.5984L114.1 37.5776C114.225 37.4945 114.288 37.3365 114.275 37.141C114.267 37.0412 114.229 36.8042 114.008 36.6961L113.946 36.6836H113.912C113.02 36.721 112.452 36.7377 111.823 36.7377C111.139 36.7377 110.584 36.7252 109.67 36.6836L109.604 36.6961L109.57 36.7127C109.37 36.8125 109.341 37.0745 109.337 37.1535C109.328 37.3448 109.391 37.5028 109.516 37.586L109.545 37.6026L110.062 37.6567C110.797 37.719 110.855 37.7232 110.855 39.557V45.5659C110.855 47.354 110.826 47.3582 110.05 47.4497L109.587 47.5037L109.512 47.537L109.478 47.5703C109.345 47.6992 109.324 47.9029 109.345 48.0485C109.37 48.2148 109.453 48.3479 109.604 48.4227L109.666 48.4352H109.7C110.63 48.3978 111.159 48.3853 111.823 48.3853C112.486 48.3853 112.986 48.4019 113.912 48.4352H113.941L114.004 48.4227L114.037 48.4061C114.242 48.3021 114.271 48.0443 114.275 47.9695C114.288 47.7782 114.221 47.6202 114.1 47.537L114.075 47.5204L113.566 47.4455C112.794 47.354 112.761 47.3499 112.761 45.5618V39.5529C112.761 37.719 112.824 37.7107 113.554 37.6525Z" fill="#0080BB"/>
<path d="M112.985 34.2983C112.985 33.7577 112.522 33.1797 111.829 33.1797C111.496 33.1797 111.191 33.3044 110.97 33.5332C110.757 33.7535 110.645 34.0488 110.657 34.3607C110.678 35.0468 111.149 35.5042 111.829 35.5042C112.509 35.5042 112.985 34.9969 112.985 34.3025V34.2983Z" fill="#0080BB"/>
<path d="M128.457 36.6885L128.386 36.6719H128.349C127.819 36.7093 127.302 36.7259 126.726 36.7259C126.038 36.7259 125.42 36.7093 124.945 36.6719L124.87 36.6885L124.832 36.7093C124.703 36.7842 124.615 36.9339 124.599 37.1085C124.582 37.2832 124.64 37.4495 124.791 37.5742L124.824 37.6034L125.208 37.6449C125.541 37.6824 125.683 37.7406 125.737 37.7697C125.729 37.8695 125.704 38.0192 125.604 38.277C125.312 39.0089 124.507 40.9384 124.036 42.0487C123.911 42.3314 123.756 42.7015 123.585 43.1049C123.318 43.7328 122.968 44.5645 122.655 45.2631C121.896 43.5083 121.17 41.6952 120.486 39.9778C120.052 38.9174 119.769 38.0774 119.681 37.7655C119.744 37.7406 119.89 37.6948 120.228 37.6491L120.519 37.6117L120.586 37.5826L120.62 37.5576C120.736 37.4578 120.799 37.2915 120.782 37.1127C120.761 36.9339 120.674 36.7842 120.511 36.6927L120.44 36.676H120.403C119.694 36.7135 119.101 36.7301 118.367 36.7301C117.633 36.7301 117.108 36.7176 116.586 36.676L116.507 36.6927L116.469 36.7176C116.336 36.8008 116.248 36.9546 116.236 37.1251C116.223 37.2956 116.29 37.4578 116.432 37.5784L116.465 37.6075L116.849 37.6491C117.416 37.7156 117.621 37.9319 118.009 38.8758L120.987 46.1987C121.333 47.0512 121.6 47.8122 121.754 48.4068L121.787 48.5358L121.908 48.5857C122.025 48.6314 122.142 48.6563 122.259 48.6563C122.38 48.6563 122.501 48.6231 122.622 48.5399L122.676 48.4734L122.693 48.4276C122.98 47.5253 123.79 45.5417 124.44 44.0489L125.354 41.9738C126.159 40.1608 126.789 38.8675 127.231 38.1273C127.427 37.8154 127.614 37.6824 127.911 37.6574L128.511 37.62L128.582 37.5493C128.703 37.4245 128.728 37.2249 128.711 37.0794C128.686 36.9172 128.611 36.7883 128.457 36.701V36.6885Z" fill="#0080BB"/>
<path d="M83.9302 33.5641C83.7217 33.797 83.6132 34.1172 83.6466 34.4166C83.6466 35.1152 84.0553 35.5352 84.7352 35.5352C85.4151 35.5352 85.8572 35.0487 85.8572 34.3834C85.8572 33.822 85.4276 33.2148 84.7352 33.2148C84.4224 33.2148 84.1388 33.3396 83.9302 33.5683V33.5641Z" fill="#0080BB"/>
<path d="M89.6013 34.3834C89.6013 33.8095 89.2008 33.2148 88.5293 33.2148C87.8161 33.2148 87.3906 33.8261 87.3906 34.4249C87.4073 35.1028 87.8578 35.5394 88.5293 35.5394C89.1633 35.5394 89.6013 35.0653 89.6013 34.3875V34.3834Z" fill="#0080BB"/>
<path d="M92.3392 36.7044L92.2642 36.6836H92.2183C91.5718 36.7252 91.1255 36.7377 90.4581 36.7377C89.7907 36.7377 89.1651 36.721 88.5019 36.6836L88.4268 36.7044L88.3893 36.7293C88.2808 36.8 88.2058 36.9289 88.1849 37.0828C88.1641 37.2491 88.2058 37.4072 88.3017 37.5194L88.3726 37.6026L88.9023 37.6442C89.2986 37.6774 89.4946 37.7814 89.5447 37.8687C89.6322 38.0184 89.8325 38.6505 89.8325 41.2329V43.1707C89.8325 45.1002 89.2902 47.3998 86.7084 47.3998C84.5394 47.3998 83.5342 46.0524 83.5342 43.154V39.5071C83.5342 37.7066 83.5926 37.7024 84.31 37.64L84.748 37.6026L84.8105 37.5818L84.8397 37.561C84.9607 37.4778 85.0233 37.324 85.0108 37.1369C85.0066 37.062 84.9774 36.8125 84.7438 36.6961L84.6812 36.6836H84.6479C83.7845 36.721 83.2422 36.7377 82.579 36.7377C81.9492 36.7377 81.382 36.7252 80.4602 36.6836L80.3976 36.6961L80.3642 36.7127C80.164 36.8167 80.1307 37.0662 80.1265 37.141C80.114 37.3281 80.1807 37.4862 80.3267 37.5818L80.3559 37.6026L80.8439 37.64C81.5613 37.7024 81.6197 37.7066 81.6197 39.5071V43.4909C81.6197 45.5451 82.0702 46.8716 83.0295 47.6701C83.8012 48.3271 84.9232 48.6597 86.3663 48.6597C87.7303 48.6597 89.0441 48.1566 89.7866 47.3457C90.6291 46.4475 91.0421 45.0711 91.0421 43.1374V41.2329C91.0421 40.4594 91.0421 38.401 91.2548 37.8978C91.3048 37.7939 91.5342 37.6733 91.8888 37.6442L92.4018 37.6026L92.4727 37.5194C92.5728 37.403 92.6187 37.2242 92.5895 37.062C92.5645 36.9165 92.4894 36.8 92.3434 36.7085L92.3392 36.7044Z" fill="#0080BB"/>
<path d="M193.926 45.7272C193.83 45.5151 193.597 45.4153 193.409 45.4153C193.3 45.4153 193.196 45.4444 193.088 45.5276L193.033 45.5983C192.529 46.6046 192.112 47.0288 191.949 47.1161C191.603 47.2866 191.106 47.3448 189.897 47.3448C188.529 47.3448 188.191 47.1868 188.037 47.0371C187.832 46.8209 187.786 46.272 187.786 45.4611V43.0825C187.786 43.0035 187.786 42.912 187.786 42.8995C187.816 42.8829 187.949 42.8829 188.087 42.8829H189.067C189.647 42.8829 190.08 42.8953 190.306 42.9577C190.489 43.0035 190.577 43.1199 190.639 43.4068L190.802 44.093L190.844 44.1678C190.931 44.2759 191.086 44.3383 191.261 44.3383C191.465 44.3383 191.632 44.2551 191.728 44.0888L191.745 44.0264V43.989C191.745 43.8227 191.732 43.6023 191.715 43.3403C191.699 43.0409 191.678 42.6999 191.678 42.3714C191.678 42.0262 191.699 41.6769 191.715 41.3443C191.732 41.0823 191.745 40.8494 191.745 40.6373L191.728 40.5708L191.711 40.5417C191.632 40.4003 191.461 40.3171 191.261 40.3171C191.09 40.3171 190.935 40.3795 190.844 40.4835L190.823 40.5126L190.656 41.2944C190.585 41.6354 190.523 41.6561 190.427 41.6894C190.256 41.7476 189.747 41.7809 189.071 41.7809H188.091C187.953 41.7809 187.824 41.7809 187.803 41.7767C187.791 41.7518 187.791 41.6603 187.791 41.5688V38.1964C187.791 38.0051 187.791 37.8263 187.811 37.793C187.836 37.7805 187.945 37.7805 188.037 37.7805H189.255C189.868 37.7805 190.485 37.793 190.835 37.872C191.536 38.0508 191.678 38.4833 191.907 39.2069L191.949 39.3274L191.978 39.3815L191.987 39.3898C192.07 39.4896 192.203 39.5437 192.362 39.5437C192.52 39.5437 192.721 39.4896 192.85 39.2983L192.879 39.2568L192.85 38.949C192.758 37.9302 192.683 37.1277 192.587 36.8574L192.508 36.6328L192.279 36.691C192.103 36.7326 190.969 36.7326 190.055 36.7326H186.873C186.189 36.7326 185.613 36.716 184.854 36.6786L184.787 36.691L184.754 36.7077C184.57 36.8033 184.525 37.0195 184.516 37.1443C184.508 37.3356 184.57 37.4936 184.687 37.5768L184.712 37.5934L185.075 37.6516C185.834 37.7431 185.88 37.7473 185.88 39.5229V45.5983C185.88 47.3781 185.788 47.3864 185.067 47.4488L184.416 47.507L184.349 47.5735C184.216 47.7066 184.195 47.9104 184.22 48.0559C184.249 48.2222 184.333 48.3511 184.479 48.426L184.541 48.4385H184.691C185.609 48.4052 186.164 48.3886 186.869 48.3886H188.391C189.822 48.3886 191.303 48.4052 192.921 48.4385H193.088L193.159 48.2929C193.388 47.823 193.818 46.4965 193.951 45.8478L193.943 45.7688L193.926 45.7272Z" fill="#0080BB"/>
<path d="M201.164 41.8169L199.813 40.9728C199.32 40.6692 198.495 40.0205 198.495 39.1181C198.495 38.3821 198.799 37.5047 200.251 37.5047C201.702 37.5047 202.073 38.3738 202.311 39.2471L202.353 39.3178C202.432 39.4134 202.557 39.4633 202.707 39.4633C202.874 39.4633 203.087 39.3968 203.212 39.2138L203.237 39.1389V39.0974C203.237 38.3281 203.07 37.3633 202.916 36.9516L202.853 36.7811H202.67C202.561 36.7811 202.353 36.752 202.144 36.6897C201.736 36.5774 201.089 36.4609 200.505 36.4609C198.286 36.4609 196.793 37.7292 196.793 39.6213C196.793 41.1391 197.848 42.1538 198.737 42.7401L200.347 43.788C201.46 44.5033 201.615 45.2393 201.615 45.9337C201.615 46.7696 201.043 47.6137 199.758 47.6137C198.128 47.6137 197.41 46.3496 197.093 45.2726L197.072 45.2268L197.064 45.2143C196.989 45.1021 196.855 45.0397 196.697 45.0397C196.555 45.0397 196.347 45.0979 196.205 45.2934L196.18 45.3724V45.4181C196.217 46.229 196.434 47.464 196.684 47.9215L196.734 47.9755L196.768 47.9963C197.193 48.2416 198.123 48.6575 199.537 48.6575C201.848 48.6575 203.4 47.2977 203.4 45.2767C203.4 43.8753 202.666 42.7443 201.16 41.8169H201.164Z" fill="#0080BB"/>
<path d="M208.446 35.504C209.118 35.504 209.602 34.9967 209.602 34.3022C209.602 33.7616 209.139 33.1836 208.446 33.1836C208.113 33.1836 207.808 33.3083 207.587 33.5371C207.374 33.7575 207.262 34.0527 207.274 34.3604C207.295 35.0466 207.767 35.5081 208.446 35.5081V35.504Z" fill="#0080BB"/>
<path d="M210.697 47.5204L210.184 47.4455C209.412 47.354 209.379 47.3499 209.379 45.5618V39.5529C209.379 37.719 209.442 37.7107 210.172 37.6525L210.626 37.6192L210.689 37.5984L210.718 37.5776C210.839 37.4945 210.901 37.3365 210.889 37.1452C210.881 37.0246 210.839 36.8042 210.622 36.6961L210.559 36.6836H210.526C209.633 36.721 209.07 36.7377 208.436 36.7377C207.752 36.7377 207.198 36.7252 206.284 36.6836L206.222 36.6961L206.188 36.7127C206.055 36.7792 205.963 36.9456 205.955 37.1535C205.942 37.3448 206.009 37.5028 206.155 37.5984L206.184 37.6192L206.676 37.6567C207.41 37.719 207.469 37.7232 207.469 39.557V45.5659C207.469 47.354 207.439 47.3582 206.664 47.4497L206.201 47.5037L206.121 47.537L206.088 47.5703C205.925 47.7324 205.95 47.9778 205.963 48.0485C205.992 48.2148 206.071 48.3437 206.222 48.4186L206.284 48.431H206.317C207.243 48.3936 207.773 48.3811 208.441 48.3811C209.108 48.3811 209.658 48.3978 210.53 48.431H210.559L210.622 48.4186L210.655 48.4019C210.793 48.3312 210.881 48.1691 210.893 47.9611C210.906 47.7699 210.839 47.6118 210.718 47.5328L210.693 47.5162L210.697 47.5204Z" fill="#0080BB"/>
<path d="M181.899 36.2345C181.824 36.2345 181.754 36.247 181.658 36.2844L181.591 36.3385L181.57 36.38C181.386 36.6919 181.37 36.721 180.473 36.721H173.482C172.677 36.721 172.481 36.6628 172.427 36.3717L172.394 36.301L172.36 36.2719C172.285 36.2012 172.181 36.168 172.035 36.168C171.972 36.168 171.814 36.1763 171.714 36.2428L171.622 36.301L171.601 36.4133C171.484 37.0828 171.234 38.139 170.967 38.8834L170.93 38.9874L170.984 39.0872C171.076 39.2618 171.297 39.3866 171.522 39.3866C171.635 39.3866 171.735 39.3533 171.839 39.2743L171.897 39.1953C172.06 38.8169 172.214 38.4634 172.594 38.1183C172.936 37.8064 173.791 37.7648 174.5 37.7648H175.43C175.539 37.7648 175.647 37.7648 175.664 37.7689C175.68 37.7981 175.68 37.9228 175.68 38.0476V45.5867C175.68 47.3665 175.589 47.3748 174.867 47.4372L174.229 47.4954L174.146 47.5287C174.004 47.616 173.924 47.7865 173.933 47.9861C173.933 48.061 173.966 48.3021 174.191 48.4186L174.221 48.4352H174.383C175.405 48.3978 175.968 48.3812 176.631 48.3812C177.295 48.3812 177.879 48.3978 178.838 48.4311H178.871L178.934 48.4186L178.967 48.4019C179.105 48.3313 179.193 48.1649 179.205 47.9612C179.218 47.7699 179.151 47.6119 179.026 47.5328L179.001 47.5162L178.367 47.4414C177.633 47.379 177.591 47.3748 177.591 45.5909V38.0268C177.591 37.9478 177.591 37.8396 177.595 37.7731C177.658 37.7648 177.762 37.7648 177.82 37.7648H179.021C179.902 37.7648 180.494 37.8854 180.832 38.1349C180.911 38.1931 181.065 38.48 181.157 39.2244L181.186 39.2951L181.211 39.3242C181.299 39.4281 181.449 39.4864 181.616 39.4864C181.829 39.4864 182.008 39.3907 182.096 39.2078L182.108 39.1371V39.0996C182.058 38.6256 182.171 37.2949 182.35 36.6296L182.375 36.5339L182.329 36.4424C182.233 36.2553 181.995 36.2345 181.899 36.2345Z" fill="#0080BB"/>
<path d="M139.297 45.7236C139.201 45.5115 138.967 45.4158 138.779 45.4158C138.671 45.4158 138.571 45.4449 138.458 45.5281L138.404 45.5988C137.899 46.6051 137.482 47.0293 137.32 47.1166C136.973 47.2871 136.477 47.3453 135.267 47.3453C133.899 47.3453 133.561 47.1873 133.407 47.0376C133.199 46.8172 133.157 46.2725 133.157 45.4616V43.083C133.157 43.004 133.157 42.9125 133.157 42.9C133.186 42.8834 133.32 42.8834 133.457 42.8834H134.442C135.021 42.8834 135.451 42.8958 135.68 42.9582C135.864 43.004 135.951 43.1204 136.014 43.4073L136.177 44.0935L136.218 44.1683C136.306 44.2764 136.46 44.3388 136.64 44.3388C136.84 44.3388 137.007 44.2556 137.103 44.0893L137.119 44.0269V43.9895C137.119 43.8232 137.107 43.6028 137.09 43.3408C137.073 43.0414 137.053 42.7004 137.053 42.3719C137.053 42.0267 137.073 41.6774 137.09 41.3448C137.107 41.0828 137.119 40.8499 137.119 40.6378L137.103 40.5713L137.086 40.538C137.007 40.4008 136.836 40.3135 136.635 40.3135C136.464 40.3135 136.31 40.3759 136.218 40.4798L136.198 40.5089L136.031 41.2907C135.96 41.6317 135.897 41.6525 135.797 41.6858C135.626 41.744 135.117 41.7772 134.442 41.7772H133.457C133.32 41.7772 133.19 41.7772 133.169 41.7731C133.157 41.7481 133.157 41.6566 133.157 41.5652V38.1927C133.157 38.0014 133.157 37.8226 133.178 37.7893C133.203 37.7769 133.311 37.7769 133.407 37.7769H134.625C135.238 37.7769 135.856 37.7893 136.206 37.8684C136.907 38.0472 137.048 38.4796 137.274 39.2032L137.315 39.3196L137.345 39.3737L137.353 39.382C137.436 39.4818 137.57 39.5359 137.728 39.5359C137.887 39.5359 138.087 39.4818 138.216 39.2905L138.246 39.2489L138.212 38.8705C138.129 37.9224 138.049 37.1157 137.954 36.8496L137.874 36.625L137.645 36.6832C137.47 36.7248 136.335 36.7248 135.422 36.7248H132.239C131.555 36.7248 130.98 36.7082 130.22 36.6707L130.158 36.6832L130.125 36.6999C129.933 36.7955 129.895 37.0325 129.887 37.1323C129.874 37.3278 129.937 37.4858 130.062 37.569L130.087 37.5856L130.446 37.6438C131.205 37.7353 131.251 37.7394 131.251 39.5151V45.5905C131.251 47.3703 131.159 47.3786 130.437 47.441L129.787 47.4992L129.716 47.5657C129.553 47.7321 129.574 47.9774 129.586 48.0522C129.616 48.2186 129.699 48.3433 129.841 48.414L129.903 48.4307H130.058C130.975 48.3974 131.526 48.3808 132.235 48.3808H133.757C135.188 48.3808 136.669 48.3974 138.287 48.4307H138.454L138.525 48.2851C138.754 47.8152 139.184 46.4887 139.317 45.84L139.309 45.761L139.292 45.7194L139.297 45.7236Z" fill="#0080BB"/>
<path d="M152.771 47.7415L152.713 47.729C152.333 47.6999 151.962 47.5544 151.695 47.3173C150.544 46.3568 149.622 44.9387 148.346 42.8887C148.321 42.8471 148.304 42.818 148.292 42.793C148.909 42.5144 150.415 41.6453 150.415 39.8031C150.415 38.3228 149.576 37.5742 148.876 37.2125C148 36.7384 146.894 36.6719 145.927 36.6719C144.388 36.6719 143.182 36.7135 142.102 36.8133L142.035 36.8341C141.898 36.9047 141.806 37.0503 141.789 37.2333C141.772 37.4204 141.847 37.6075 141.981 37.699L142.01 37.7198L142.644 37.8113C143.082 37.8653 143.161 37.8736 143.161 39.5287V45.5833C143.161 47.3423 143.132 47.3465 142.373 47.4379L141.906 47.4962L141.822 47.5377L141.789 47.5793C141.664 47.7249 141.647 47.9328 141.676 48.0742C141.71 48.228 141.789 48.3445 141.931 48.4152L141.993 48.4276H142.031C142.803 48.3944 143.424 48.3777 144.133 48.3777C144.842 48.3777 145.393 48.3944 146.169 48.4276L146.231 48.4152L146.265 48.3985C146.39 48.3362 146.473 48.1989 146.498 48.0076C146.519 47.8164 146.465 47.6459 146.323 47.5253L146.294 47.5003L145.864 47.4379C145.101 47.334 145.076 47.3298 145.076 45.5833V43.4584C145.076 43.4209 145.076 43.371 145.067 43.371C145.113 43.3461 145.334 43.3461 145.614 43.3461C146.21 43.3461 146.394 43.4708 146.602 43.7744C146.861 44.1487 147.161 44.6227 147.449 45.0801C147.737 45.5334 148.033 46.0033 148.262 46.3276C149.455 48.0201 150.356 48.5607 151.979 48.5607C152.325 48.5607 152.621 48.5233 152.83 48.4526L152.888 48.4193C153.001 48.332 153.059 48.1823 153.038 48.0409C153.017 47.9037 152.93 47.7872 152.788 47.7332L152.771 47.7415ZM147.616 41.9447C147.161 42.2857 146.527 42.3314 146.027 42.3314C145.447 42.3314 145.188 42.3148 145.076 42.3023C145.072 42.2067 145.072 42.057 145.072 41.9489V38.0026C145.072 37.814 145.351 37.7198 145.91 37.7198C147.716 37.7198 148.358 38.9798 148.358 40.061C148.358 40.9425 148.117 41.558 147.616 41.9447Z" fill="#0080BB"/>
<path d="M166.372 35.504C167.04 35.504 167.528 34.9967 167.528 34.3022C167.528 33.7616 167.065 33.1836 166.372 33.1836C166.039 33.1836 165.73 33.3083 165.509 33.5371C165.296 33.7575 165.184 34.0527 165.196 34.3646C165.217 35.0507 165.688 35.5081 166.372 35.5081V35.504Z" fill="#0080BB"/>
<path d="M168.112 37.6525L168.571 37.6109L168.658 37.5776C168.779 37.4945 168.846 37.3365 168.834 37.1452C168.829 37.0703 168.8 36.8125 168.571 36.6961L168.508 36.6836H168.475C167.582 36.721 167.015 36.7377 166.389 36.7377C165.705 36.7377 165.146 36.7252 164.237 36.6836L164.175 36.6961L164.141 36.7127C163.941 36.8125 163.908 37.0703 163.903 37.1493C163.891 37.3448 163.958 37.5028 164.104 37.5984L164.133 37.6192L164.625 37.6567C165.359 37.719 165.418 37.7232 165.418 39.557V45.5659C165.418 47.354 165.388 47.3582 164.613 47.4497L164.15 47.5037L164.07 47.537L164.037 47.5703C163.903 47.7033 163.883 47.9071 163.908 48.0526C163.933 48.219 164.02 48.3479 164.166 48.4227L164.229 48.4352H164.262C165.188 48.3978 165.714 48.3853 166.385 48.3853C167.057 48.3853 167.545 48.4019 168.475 48.4352H168.508L168.571 48.4227L168.604 48.4061C168.738 48.3354 168.829 48.1732 168.838 47.9653C168.846 47.774 168.784 47.6202 168.663 47.537L168.638 47.5204L168.129 47.4455C167.357 47.354 167.324 47.3499 167.324 45.5618V39.5529C167.324 37.719 167.382 37.7107 168.116 37.6525H168.112Z" fill="#0080BB"/>
<path d="M158.949 41.8169L157.594 40.9728C157.102 40.6692 156.28 40.0205 156.28 39.1181C156.28 38.3821 156.585 37.5047 158.036 37.5047C159.488 37.5047 159.859 38.3738 160.097 39.2471L160.138 39.3178C160.217 39.4134 160.343 39.4633 160.493 39.4633C160.66 39.4633 160.872 39.3968 160.997 39.2138L161.022 39.1389V39.0974C161.022 38.3281 160.856 37.3633 160.701 36.9516L160.639 36.7811H160.455C160.343 36.7811 160.13 36.7479 159.93 36.6897C159.517 36.5774 158.874 36.4609 158.286 36.4609C156.067 36.4609 154.574 37.7292 154.574 39.6213C154.574 41.1391 155.629 42.1538 156.518 42.7401L158.128 43.788C159.241 44.5033 159.396 45.2393 159.396 45.9337C159.396 46.7696 158.824 47.6137 157.54 47.6137C155.909 47.6137 155.191 46.3496 154.874 45.2726L154.854 45.231L154.845 45.2185C154.77 45.1062 154.637 45.0439 154.478 45.0439C154.336 45.0439 154.128 45.1021 153.986 45.2975L153.961 45.3765V45.4223C153.994 46.2124 154.215 47.464 154.466 47.9256L154.516 47.9797L154.549 48.0005C154.979 48.2458 155.913 48.6575 157.319 48.6575C159.629 48.6575 161.181 47.2977 161.181 45.2767C161.181 43.8753 160.451 42.7443 158.945 41.8169H158.949Z" fill="#0080BB"/>
<path d="M82.8518 56.4305L83.1729 56.4055L83.1938 56.3889C83.2563 56.3473 83.2897 56.2641 83.2814 56.156C83.2814 56.1144 83.2605 55.9689 83.1604 55.9148L83.1354 55.9023H83.1062C82.5264 55.9273 82.1218 55.9398 81.6505 55.9398C81.1541 55.9398 80.7621 55.9273 80.1698 55.9023H80.1406L80.1156 55.9148C80.0113 55.9689 79.9988 56.1144 79.9946 56.156C79.9904 56.26 80.0196 56.3431 80.0822 56.3847L80.103 56.4013L80.4242 56.4263C81.0082 56.4762 81.0457 56.5552 81.0457 57.8235V62.0027C81.0457 63.2544 81.0165 63.3209 80.42 63.3916L80.0905 63.4332L80.0655 63.4581C79.9946 63.5288 79.9821 63.6453 79.9988 63.7284C80.0155 63.8199 80.0572 63.8864 80.1156 63.9197L80.1406 63.9322H80.1656C80.7579 63.9072 81.15 63.8989 81.6463 63.8989C82.1135 63.8989 82.5181 63.9114 83.102 63.9322H83.127L83.1521 63.9239C83.2563 63.874 83.273 63.7326 83.2772 63.6868C83.2855 63.5787 83.2522 63.4914 83.1896 63.4498L82.8476 63.3958C82.2511 63.3251 82.2219 63.2627 82.2219 62.0069V57.8277C82.2219 56.5594 82.2553 56.4804 82.8434 56.4305H82.8518Z" fill="#101820"/>
<path d="M81.6494 54.6942C82.0706 54.6942 82.3751 54.374 82.3751 53.9332C82.3751 53.5922 82.0831 53.2305 81.6494 53.2305C81.4366 53.2305 81.2406 53.3095 81.1029 53.455C80.9695 53.5922 80.8986 53.7794 80.9069 53.9748C80.9194 54.4115 81.2072 54.6942 81.6452 54.6942H81.6494Z" fill="#101820"/>
<path d="M98.178 59.4632L97.2353 58.8769C96.8808 58.6565 96.2843 58.1866 96.2843 57.5212C96.2843 57.0721 96.4512 56.3236 97.5815 56.3236C98.6118 56.3236 98.9246 56.9931 99.0831 57.5753L99.104 57.6169C99.1498 57.6709 99.2249 57.6959 99.3125 57.6917C99.3959 57.6876 99.5085 57.6543 99.5628 57.5711L99.5794 57.5462V57.5129C99.5794 57.0305 99.4793 56.361 99.3626 56.045L99.3375 55.9785H99.2666C99.1915 55.9785 99.0372 55.9577 98.8787 55.9119C98.5075 55.8121 98.0904 55.7539 97.7567 55.7539C96.2593 55.7539 95.2499 56.6064 95.2499 57.8747C95.2499 58.8976 95.9673 59.5838 96.568 59.9788L97.6858 60.7065C98.5325 61.2471 98.6034 61.7919 98.6034 62.2618C98.6034 62.8356 98.2447 63.5051 97.2353 63.5051C96.0508 63.5051 95.5336 62.5945 95.3125 61.8335L95.2958 61.8044C95.2583 61.7503 95.1915 61.717 95.1081 61.717C95.033 61.717 94.9079 61.7461 94.8412 61.8376L94.8203 61.8667V61.9042C94.8453 62.4364 94.9955 63.3055 95.154 63.5925L95.1665 63.6174L95.1915 63.634C95.4209 63.7671 96.0716 64.0832 97.081 64.0832C98.6451 64.0832 99.6921 63.1683 99.6921 61.8085C99.6921 60.8646 99.1957 60.0994 98.1696 59.4673L98.178 59.4632Z" fill="#101820"/>
<path d="M118.413 55.6222L118.38 55.6347L118.363 55.6638C118.221 55.9091 118.179 55.9424 117.537 55.9424H112.707C112.177 55.9424 111.923 55.9258 111.873 55.6638V55.6347L111.844 55.6139C111.76 55.5266 111.547 55.5598 111.489 55.5973L111.452 55.6222L111.443 55.668C111.364 56.1379 111.185 56.8822 111.001 57.402L110.984 57.4436L111.005 57.4852C111.043 57.56 111.126 57.6224 111.222 57.6432C111.31 57.664 111.401 57.6473 111.464 57.6016L111.485 57.585L111.497 57.56C111.618 57.2897 111.731 57.0361 112.002 56.7866C112.261 56.5495 112.845 56.5204 113.379 56.5204H114.025C114.108 56.5204 114.234 56.5204 114.254 56.5371C114.271 56.5579 114.271 56.6784 114.271 56.7907V62.0386C114.271 63.2986 114.2 63.3527 113.637 63.4026L113.216 63.44L113.17 63.4566C113.095 63.5024 113.053 63.5938 113.057 63.702C113.057 63.7851 113.095 63.8891 113.178 63.9307L113.203 63.9431H113.228C113.979 63.9182 114.392 63.9099 114.863 63.9099C115.335 63.9099 115.76 63.9224 116.398 63.9431H116.423L116.448 63.9307C116.553 63.8808 116.569 63.7352 116.574 63.6895C116.582 63.5814 116.549 63.4982 116.486 63.4566L116.061 63.4026C115.477 63.3527 115.452 63.2903 115.452 62.0386V56.7741C115.452 56.666 115.452 56.5579 115.464 56.5371C115.485 56.5204 115.606 56.5204 115.689 56.5204H116.523C117.153 56.5204 117.579 56.6119 117.829 56.7949C117.879 56.8323 118.004 56.982 118.079 57.5767V57.6058L118.104 57.6307C118.171 57.7097 118.292 57.7264 118.375 57.7139C118.476 57.7014 118.551 57.6557 118.584 57.585L118.596 57.5559V57.5268C118.559 57.1899 118.642 56.246 118.768 55.7802L118.78 55.7428L118.763 55.7054C118.705 55.5889 118.505 55.5848 118.417 55.6222H118.413Z" fill="#101820"/>
<path d="M136.034 63.397C135.601 63.3471 135.463 63.2307 135.121 62.2202L133.457 57.3507C133.298 56.885 133.131 56.3985 132.994 55.9369C132.96 55.8246 132.856 55.7539 132.714 55.7539H132.664L132.631 55.7913C132.497 55.9452 132.314 56.1323 132.068 56.203L131.976 56.228L131.993 56.3194C132.022 56.4775 131.959 56.6854 131.801 57.0971L130.6 60.2658C130.266 61.1598 129.999 61.8085 129.807 62.2826C129.715 62.5113 129.632 62.7067 129.565 62.8814C129.398 63.3014 129.148 63.3762 128.948 63.3929L128.527 63.4303L128.502 63.4511C128.447 63.4968 128.418 63.5758 128.422 63.6673C128.422 63.7505 128.456 63.8544 128.535 63.9085L128.564 63.9293L128.823 63.9168C129.106 63.9043 129.423 63.8919 129.724 63.8919L130.17 63.9002C130.483 63.9043 130.733 63.9127 130.942 63.9251H130.971L130.996 63.9168C131.075 63.8794 131.129 63.7962 131.138 63.6964C131.146 63.5925 131.108 63.4927 131.038 63.4428L131.012 63.4261L130.595 63.3887C130.349 63.3679 130.349 63.3263 130.349 63.2556C130.349 63.1849 130.383 62.9687 130.604 62.3158L131.017 61.085C131.079 60.8978 131.096 60.8729 131.363 60.8729H133.14C133.453 60.8729 133.457 60.8854 133.523 61.0933L134.045 62.6901C134.112 62.898 134.191 63.1475 134.191 63.2806C134.191 63.3055 134.112 63.3679 133.874 63.3887L133.507 63.4261L133.486 63.4428C133.419 63.4927 133.382 63.58 133.39 63.684C133.398 63.7879 133.448 63.8752 133.523 63.9127L133.548 63.9251L133.774 63.9168C134.082 63.9043 134.466 63.8877 134.925 63.8877C135.463 63.8877 135.884 63.9002 136.343 63.9251H136.385L136.414 63.9002C136.485 63.842 136.51 63.7255 136.506 63.6465C136.506 63.555 136.468 63.4843 136.406 63.4428L136.039 63.3887L136.034 63.397ZM133.202 60.1826C133.202 60.1826 133.148 60.2034 132.99 60.2034H131.542C131.488 60.2034 131.396 60.2034 131.35 60.1951C131.359 60.1576 131.38 60.0953 131.392 60.0578L132.13 58.0161C132.205 57.8123 132.272 57.6418 132.322 57.5212C132.376 57.6584 132.435 57.8373 132.489 57.9994L133.144 59.9705C133.186 60.0911 133.202 60.1618 133.198 60.1784L133.202 60.1826Z" fill="#101820"/>
<path d="M155.806 55.9028H155.773C155.389 55.9278 155.085 55.9403 154.568 55.9403C154.151 55.9403 153.763 55.932 153.183 55.9028H153.162L153.141 55.9112C153.07 55.9403 153.016 56.011 153.003 56.1025C152.987 56.2106 153.02 56.3187 153.087 56.3811L153.112 56.4019L153.341 56.4268C153.733 56.4767 153.942 56.5349 153.996 56.6139C154.063 56.7179 154.217 57.1587 154.217 58.9884V61.5C154.217 61.5998 154.217 61.7163 154.213 61.8036C153.817 61.3919 153.4 60.9303 152.887 60.3565L151.247 58.5226L151.227 58.5018C150.067 57.2044 149.404 56.352 149.254 55.9735L149.225 55.8945L149.141 55.907C148.999 55.9278 148.807 55.9444 148.616 55.9444C148.411 55.9444 147.786 55.9444 147.293 55.907H147.264L147.239 55.9195C147.172 55.9527 147.127 56.0234 147.114 56.1066C147.097 56.2106 147.127 56.3145 147.189 56.3811L147.214 56.406L147.448 56.431C147.761 56.4725 147.99 56.5599 148.115 56.6805C148.336 56.9217 148.344 57.1337 148.344 57.4581V60.947C148.344 61.5167 148.344 62.8432 148.198 63.2216C148.178 63.2674 148.094 63.3547 147.765 63.3963L147.41 63.4378L147.385 63.4628C147.331 63.5169 147.302 63.6042 147.31 63.6957C147.318 63.7872 147.36 63.8662 147.423 63.9119L147.452 63.9327H147.489C147.902 63.9077 148.215 63.8953 148.707 63.8953C149.17 63.8953 149.592 63.9077 150.08 63.9285H150.117L150.146 63.9077C150.205 63.8662 150.242 63.7996 150.255 63.7206C150.267 63.6333 150.246 63.5376 150.192 63.467L150.163 63.4295L149.75 63.3879C149.421 63.363 149.266 63.284 149.233 63.2175C149.108 62.9929 149.033 62.128 149.033 60.8389V58.2814C149.033 58.1068 149.033 57.8864 149.054 57.7201C149.25 57.9405 149.562 58.3106 149.846 58.6432C150.025 58.8553 150.188 59.0466 150.296 59.1713L153.024 62.2693C153.929 63.2965 154.363 63.8079 154.526 64.0325L154.555 64.0782H154.609C154.768 64.0782 154.889 64.0034 154.931 63.8786L154.939 63.8578V63.8329C154.918 63.6957 154.901 63.2299 154.901 61.7911V58.8304C154.901 58.2315 154.893 56.9799 155.068 56.6181C155.085 56.589 155.227 56.4933 155.648 56.4268L155.848 56.3977L155.873 56.3727C155.932 56.3145 155.961 56.2189 155.952 56.1232C155.944 56.0359 155.898 55.9611 155.831 55.9195L155.802 55.9028H155.806Z" fill="#101820"/>
<path d="M172.005 59.4827C171.955 59.4744 171.926 59.4661 171.905 59.4578C172.498 59.1667 173.069 58.7342 173.069 57.8027C173.069 57.0958 172.731 56.5427 172.118 56.2433C171.526 55.9398 170.725 55.9023 170.095 55.9023C169.09 55.9023 168.26 55.9315 167.555 55.998L167.517 56.0105C167.442 56.0479 167.392 56.1269 167.384 56.2267C167.376 56.3307 167.413 56.4263 167.488 56.4804L167.513 56.497L167.922 56.5344C168.347 56.5718 168.402 56.6883 168.402 57.5699V62.0276C168.402 63.296 168.36 63.3001 167.843 63.3916L167.597 63.4332L167.572 63.454C167.513 63.5122 167.484 63.612 167.501 63.716C167.513 63.8074 167.559 63.8781 167.618 63.9114L167.643 63.9239L168.026 63.9114C168.331 63.8989 168.648 63.8864 169.019 63.8864C169.286 63.8864 169.582 63.8989 169.845 63.9072C170.07 63.9156 170.274 63.9239 170.429 63.9239C172.485 63.9239 173.661 63.0548 173.661 61.5411C173.661 60.1564 172.577 59.5867 172.001 59.4786L172.005 59.4827ZM170.078 59.3538C169.895 59.3621 169.64 59.3704 169.595 59.3289C169.574 59.3081 169.574 59.2083 169.574 59.1251V56.7423C169.574 56.5635 169.603 56.5552 169.678 56.5303C169.77 56.4887 169.937 56.4679 170.179 56.4679C170.566 56.4679 171.83 56.576 171.83 57.9483C171.83 58.9047 171.342 59.2997 170.083 59.3455L170.078 59.3538ZM170.646 63.3542C170.224 63.3542 169.962 63.2627 169.795 63.0631C169.574 62.8053 169.574 62.09 169.574 61.853V60.119C169.574 59.9651 169.574 59.9152 170.154 59.9152C172.101 59.9152 172.393 61.1086 172.393 61.8156C172.393 63.1546 171.301 63.3542 170.65 63.3542H170.646Z" fill="#101820"/>
<path d="M193.476 55.9231L193.447 55.9065H193.413C193.005 55.9315 192.688 55.9439 192.183 55.9439C191.732 55.9439 191.294 55.9315 190.848 55.9065H190.815L190.786 55.9231C190.727 55.9606 190.69 56.0313 190.677 56.1144C190.665 56.2059 190.685 56.2932 190.74 56.3598L190.769 56.393L191.107 56.418C191.374 56.4388 191.553 56.5095 191.616 56.6134C191.695 56.7507 191.824 57.2455 191.824 58.992V60.3435C191.824 61.7199 191.432 63.3625 189.576 63.3625C188.016 63.3625 187.29 62.3977 187.29 60.331V57.7986C187.29 56.5469 187.324 56.472 187.899 56.4221L188.208 56.3972L188.229 56.3806C188.291 56.339 188.325 56.2558 188.316 56.1518C188.312 56.0645 188.275 55.9606 188.191 55.9148L188.166 55.9023H188.137C187.582 55.9273 187.186 55.9398 186.694 55.9398C186.202 55.9398 185.805 55.9273 185.238 55.9023H185.209L185.184 55.9148C185.105 55.9564 185.067 56.0645 185.063 56.1477C185.059 56.2475 185.088 56.3307 185.15 56.3722L185.176 56.3889L185.497 56.4138C186.076 56.4637 186.11 56.5386 186.11 57.7903V60.5597C186.11 61.9819 186.406 62.8593 187.061 63.4082C187.582 63.8532 188.345 64.0777 189.33 64.0777C190.26 64.0777 191.148 63.7367 191.653 63.1878C192.229 62.5724 192.504 61.6326 192.504 60.3102V58.9837C192.504 58.3891 192.504 57.0002 192.658 56.6342C192.713 56.5219 192.909 56.4346 193.163 56.4097L193.488 56.3847L193.518 56.3514C193.572 56.2849 193.597 56.181 193.584 56.0936C193.572 56.0188 193.53 55.9522 193.468 55.9148L193.476 55.9231Z" fill="#101820"/>
<path d="M210.886 62.0193C210.798 61.9778 210.636 61.9528 210.544 62.0318L210.515 62.0734C210.26 62.7221 209.96 63.0756 209.785 63.1837C209.618 63.2793 209.368 63.3251 208.4 63.3251C207.432 63.3251 207.274 63.167 207.195 63.088C207.007 62.8926 206.974 62.6015 206.974 61.8904V57.8069C206.974 56.5594 207.007 56.4804 207.599 56.4305L207.908 56.4055L207.929 56.3889C207.991 56.3473 208.025 56.2641 208.016 56.156C208.016 56.1144 208 55.9689 207.895 55.9148L207.87 55.9023H207.841C207.291 55.9273 206.878 55.9398 206.398 55.9398C205.918 55.9398 205.53 55.9273 204.871 55.9023H204.842L204.817 55.9148C204.713 55.9689 204.696 56.1144 204.696 56.156C204.692 56.26 204.721 56.3473 204.784 56.3847L204.805 56.4014L205.126 56.4263C205.764 56.4762 205.797 56.5427 205.797 57.8027V62.0276C205.797 63.2668 205.768 63.3292 205.184 63.3916L204.792 63.429L204.767 63.454C204.709 63.5122 204.684 63.612 204.7 63.7201C204.717 63.8116 204.759 63.8823 204.817 63.9114L204.842 63.9239H204.871C205.543 63.8989 205.914 63.8864 206.398 63.8864H207.478C208.763 63.8864 209.831 63.8989 210.402 63.9239H210.469L210.498 63.8698C210.665 63.5538 211.003 62.3437 211.003 62.1774C211.003 62.1441 210.99 62.0692 210.882 62.0152L210.886 62.0193Z" fill="#101820"/>
<path d="M71.2168 14H70.5703V64.0379H71.2168V14Z" fill="#0080BB"/>
<path d="M5.50347 26.9668C7.03841 26.9668 8.15207 25.8107 8.15207 24.2181C8.15207 22.9789 7.08846 21.6523 5.50347 21.6523C4.74017 21.6523 4.04778 21.9351 3.54726 22.4549C3.05508 22.9581 2.80064 23.6317 2.8215 24.3511C2.86738 25.9147 3.94768 26.9668 5.50347 26.9668Z" fill="#0080BB"/>
<path d="M44.7255 27.1364C46.2438 27.1364 47.3449 26.0053 47.3449 24.4501C47.3449 23.1402 46.3439 21.7305 44.7255 21.7305C43.9956 21.7305 43.3282 22.0257 42.8402 22.558C42.3564 23.0944 42.102 23.8554 42.177 24.5249C42.177 26.1384 43.1531 27.1364 44.7255 27.1364Z" fill="#0080BB"/>
<path d="M52.8793 27.1364C54.36 27.1364 55.3945 26.0302 55.3945 24.4501C55.3945 23.1152 54.456 21.7305 52.8793 21.7305C51.2193 21.7305 50.2266 23.1568 50.2266 24.5457C50.2724 26.1217 51.311 27.1364 52.8793 27.1364Z" fill="#0080BB"/>
<path d="M10.5226 52.6196L10.4267 52.5531L9.29632 52.3951C7.71967 52.208 7.69048 52.2038 7.69048 48.4654V35.4871C7.69048 31.6572 7.74887 31.653 9.27129 31.5241L10.239 31.4493L10.4016 31.4035L10.5184 31.337C10.8313 31.1332 10.9981 30.7424 10.9647 30.2641C10.9272 29.7568 10.6978 29.3701 10.3182 29.183L10.1264 29.1289H10.0263C8.33281 29.2038 7.04814 29.2412 5.51737 29.2412C3.9866 29.2412 2.73113 29.2038 0.845823 29.1331L0.724863 29.1539L0.595561 29.2079C0.111722 29.4491 0.0199594 30.023 0.00327531 30.2641C-0.0259219 30.7465 0.140919 31.1332 0.47043 31.3578L0.587219 31.4451L1.69671 31.5325C3.21914 31.6614 3.2817 31.6655 3.2817 35.4954V48.4737C3.2817 52.2163 3.2525 52.2163 1.67586 52.4034L0.691495 52.524L0.487114 52.5988L0.345299 52.7194C-0.0759742 53.1436 0.00744634 53.7674 0.0283015 53.8879C0.0950379 54.3038 0.311931 54.6115 0.653955 54.782L0.845823 54.8361H0.945927C2.74364 54.7612 4.00746 54.7238 5.52571 54.7238C7.04397 54.7238 8.23688 54.7612 10.0346 54.8319L10.2473 54.8111L10.3766 54.757C10.8605 54.5117 10.9522 53.9337 10.9689 53.6967C10.9939 53.2268 10.8313 52.8359 10.5268 52.6321L10.5226 52.6196Z" fill="#0080BB"/>
<path d="M26.3776 40.2459L23.4496 38.4204C22.411 37.78 20.6758 36.4244 20.6758 34.5365C20.6758 33.0103 21.3098 31.1931 24.3213 31.1931C27.3328 31.1931 28.1128 32.9521 28.6342 34.8567L28.7092 35.0022L28.7468 35.0563C28.947 35.2974 29.2598 35.4347 29.631 35.4347C30.0023 35.4347 30.5362 35.2767 30.8281 34.84L30.899 34.6571L30.9115 34.499C30.9115 32.8398 30.5403 30.6941 30.2108 29.8042L30.0398 29.3426H29.5476C29.3224 29.3426 28.8761 29.2761 28.4506 29.1472C27.5539 28.906 26.1399 28.6523 24.8677 28.6523C19.9835 28.6523 16.7009 31.4551 16.7009 35.626C16.7009 38.9735 19.0199 41.2065 20.9678 42.4873L24.4465 44.7536C26.7947 46.259 27.1201 47.81 27.1201 49.2613C27.1201 50.9954 25.9272 52.7502 23.2577 52.7502C19.8208 52.7502 18.3025 50.0472 17.6185 47.7477L17.5601 47.6312C17.3682 47.3443 17.0429 47.1863 16.6466 47.1863C16.4714 47.1863 15.8708 47.2279 15.4787 47.7768L15.3828 48.018V48.1593C15.4662 49.9267 15.9501 52.6379 16.484 53.6193L16.6008 53.7565L16.7259 53.8439C17.4767 54.2763 19.5705 55.2868 22.7864 55.2868C27.8667 55.2868 31.2828 52.2928 31.2828 47.835C31.2828 44.7536 29.6769 42.2711 26.3818 40.2376L26.3776 40.2459Z" fill="#0080BB"/>
<path d="M61.7924 30.1533C61.7298 29.7707 61.5213 29.4713 61.1709 29.2509L60.9206 29.1719H60.7872C59.394 29.2592 58.4389 29.2883 57.0124 29.2883C55.5859 29.2883 54.2428 29.255 52.8163 29.176H52.7871L52.5911 29.2218L52.4451 29.3008C52.1615 29.4879 51.9696 29.8164 51.9112 30.2032C51.857 30.619 51.9654 31.0182 52.2074 31.2968L52.4117 31.5463L53.6422 31.6461C54.4973 31.7126 54.8101 31.9414 54.856 32.0204C54.9936 32.2616 55.4441 33.4924 55.4441 39.152V43.3187C55.4441 47.369 54.3137 52.1969 48.9413 52.1969C44.4283 52.1969 42.3261 49.365 42.3261 43.2854V35.4552C42.3261 31.775 42.3804 31.7709 43.8069 31.6503L44.7496 31.5713L44.9331 31.5172L45.0499 31.4465C45.3711 31.2261 45.5379 30.8269 45.5087 30.3529C45.4962 30.1657 45.4169 29.5337 44.8288 29.2301L44.6161 29.176H44.5076C42.6557 29.2592 41.4919 29.2883 40.0696 29.2883C38.7265 29.2883 37.492 29.2592 35.5233 29.176H35.4982L35.3356 29.2051L35.2146 29.255C34.6849 29.5212 34.6015 30.1574 34.589 30.3445C34.5598 30.8394 34.7432 31.2344 35.1144 31.4798L35.2229 31.5546L36.3324 31.6461C37.7506 31.7667 37.8089 31.7709 37.8089 35.451V44.009C37.8089 48.4876 38.7975 51.3901 40.9122 53.1408C42.6057 54.5838 45.0623 55.3157 48.2114 55.3157C51.3605 55.3157 54.076 54.2054 55.7152 52.4256C57.5671 50.4503 58.4639 47.448 58.4639 43.2397V39.1478C58.4639 37.655 58.4639 33.1057 58.906 32.0661C58.9603 31.9455 59.3648 31.7002 60.0906 31.642L61.2835 31.5422L61.4879 31.2968C61.7382 30.9974 61.8508 30.5566 61.7882 30.1449L61.7924 30.1533Z" fill="#0080BB"/>
</g>
</g>
<defs>
<clipPath id="clip0_1983_13283">
<rect width="211" height="80" fill="white"/>
</clipPath>
</defs>
</svg>
